<svg width="24" height="25" viewBox="0 0 24 25" fill="none" xmlns="http://www.w3.org/2000/svg">
<path d="M5.85 18.0076C6.7 17.3576 7.65 16.8451 8.7 16.4701C9.75 16.0951 10.85 15.9076 12 15.9076C13.15 15.9076 14.25 16.0951 15.3 16.4701C16.35 16.8451 17.3 17.3576 18.15 18.0076C18.7333 17.3243 19.1875 16.5493 19.5125 15.6826C19.8375 14.8159 20 13.8909 20 12.9076C20 10.6909 19.2208 8.80343 17.6625 7.24509C16.1042 5.68676 14.2167 4.90759 12 4.90759C9.78333 4.90759 7.89583 5.68676 6.3375 7.24509C4.77917 8.80343 4 10.6909 4 12.9076C4 13.8909 4.1625 14.8159 4.4875 15.6826C4.8125 16.5493 5.26667 17.3243 5.85 18.0076ZM12 13.9076C11.0167 13.9076 10.1875 13.5701 9.5125 12.8951C8.8375 12.2201 8.5 11.3909 8.5 10.4076C8.5 9.42426 8.8375 8.59509 9.5125 7.92009C10.1875 7.24509 11.0167 6.90759 12 6.90759C12.9833 6.90759 13.8125 7.24509 14.4875 7.92009C15.1625 8.59509 15.5 9.42426 15.5 10.4076C15.5 11.3909 15.1625 12.2201 14.4875 12.8951C13.8125 13.5701 12.9833 13.9076 12 13.9076ZM12 22.9076C10.6167 22.9076 9.31667 22.6451 8.1 22.1201C6.88333 21.5951 5.825 20.8826 4.925 19.9826C4.025 19.0826 3.3125 18.0243 2.7875 16.8076C2.2625 15.5909 2 14.2909 2 12.9076C2 11.5243 2.2625 10.2243 2.7875 9.00759C3.3125 7.79093 4.025 6.73259 4.925 5.83259C5.825 4.93259 6.88333 4.22009 8.1 3.69509C9.31667 3.17009 10.6167 2.90759 12 2.90759C13.3833 2.90759 14.6833 3.17009 15.9 3.69509C17.1167 4.22009 18.175 4.93259 19.075 5.83259C19.975 6.73259 20.6875 7.79093 21.2125 9.00759C21.7375 10.2243 22 11.5243 22 12.9076C22 14.2909 21.7375 15.5909 21.2125 16.8076C20.6875 18.0243 19.975 19.0826 19.075 19.9826C18.175 20.8826 17.1167 21.5951 15.9 22.1201C14.6833 22.6451 13.3833 22.9076 12 22.9076Z" fill="#1D1B20"/>
</svg>
