<svg width="24" height="25" viewBox="0 0 24 25" fill="none" xmlns="http://www.w3.org/2000/svg">
<path d="M19 0.907593C21.7614 0.907593 24 3.14617 24 5.90759V19.9076C24 22.669 21.7614 24.9076 19 24.9076H5C2.23858 24.9076 0 22.669 0 19.9076V5.90759C0 3.14617 2.23858 0.907593 5 0.907593H19ZM19.1777 6.92419C18.8934 6.92419 18.6439 7.03029 18.4307 7.24353L9.39551 16.2797L5.61035 12.4681C5.39711 12.2556 5.14344 12.1485 4.85059 12.1478C4.55786 12.1472 4.3047 12.2543 4.09082 12.4681C3.87694 12.682 3.76543 12.9352 3.75684 13.2279C3.74831 13.5208 3.85121 13.7744 4.06445 13.9877L8.64844 18.5717C8.86168 18.7849 9.11119 18.892 9.39551 18.892C9.67963 18.8918 9.92848 18.7848 10.1416 18.5717L19.9238 8.76306C20.137 8.55065 20.243 8.29763 20.2432 8.00427C20.2432 7.71071 20.1371 7.45677 19.9238 7.24353C19.7107 7.03037 19.4619 6.92427 19.1777 6.92419Z" fill="black"/>
</svg>
