<svg width="24" height="25" viewBox="0 0 24 25" fill="none" xmlns="http://www.w3.org/2000/svg">
<g clip-path="url(#clip0_1201_3537)">
<path d="M15 7.90759H18C18.6566 7.90759 19.3068 8.03692 19.9134 8.2882C20.52 8.53947 21.0712 8.90777 21.5355 9.37206C21.9998 9.83635 22.3681 10.3875 22.6194 10.9942C22.8707 11.6008 23 12.251 23 12.9076C23 13.5642 22.8707 14.2144 22.6194 14.821C22.3681 15.4276 21.9998 15.9788 21.5355 16.4431C21.0712 16.9074 20.52 17.2757 19.9134 17.527C19.3068 17.7783 18.6566 17.9076 18 17.9076H15M9 17.9076H6C5.34339 17.9076 4.69321 17.7783 4.08658 17.527C3.47995 17.2757 2.92876 16.9074 2.46447 16.4431C1.52678 15.5054 1 14.2337 1 12.9076C1 11.5815 1.52678 10.3097 2.46447 9.37206C3.40215 8.43438 4.67392 7.90759 6 7.90759H9M8 12.9076H16" stroke="#737373" stroke-width="2.5" stroke-linecap="round" stroke-linejoin="round"/>
</g>
<defs>
<clipPath id="clip0_1201_3537">
<rect width="24" height="24" fill="white" transform="translate(0 0.907593)"/>
</clipPath>
</defs>
</svg>
