<svg width="24" height="25" viewBox="0 0 24 25" fill="none" xmlns="http://www.w3.org/2000/svg">
<path d="M14.6404 18.8915C13.7166 21.221 11.491 22.8417 8.88351 22.8587H8.87851C7.59966 22.8588 6.35336 22.4555 5.31697 21.7062C4.28057 20.957 3.50687 19.9 3.10595 18.6856C2.70503 17.4712 2.69731 16.1613 3.08391 14.9423C3.4705 13.7233 4.2317 12.6572 5.2592 11.8958L5.2752 11.8838L4.92027 9.69324C2.42175 11.111 0.763062 13.7525 0.763062 16.7819C0.762318 18.6094 1.37787 20.3837 2.51023 21.8181C3.64259 23.2525 5.22557 24.2631 7.00331 24.6866C8.78104 25.11 10.6496 24.9216 12.3071 24.1518C13.9645 23.382 15.3139 22.0757 16.1371 20.4442L16.1581 20.3982L14.6404 18.8915Z" fill="#0385D1"/>
<path d="M17.0097 15.9757C16.9367 15.9052 16.8585 15.8404 16.7757 15.7817L16.7697 15.7777C16.5507 15.6278 16.2798 15.5378 15.9879 15.5378H9.65806L8.83922 10.4918H15.5959C15.7264 10.4918 15.8557 10.466 15.9762 10.4161C16.0968 10.3662 16.2064 10.293 16.2987 10.2007C16.3909 10.1084 16.4641 9.99883 16.5141 9.87825C16.564 9.75768 16.5897 9.62845 16.5897 9.49794C16.5897 9.36743 16.564 9.2382 16.5141 9.11763C16.4641 8.99705 16.3909 8.88749 16.2987 8.79521C16.2064 8.70293 16.0968 8.62972 15.9762 8.57978C15.8557 8.52984 15.7264 8.50413 15.5959 8.50413H8.51528L8.4043 7.83226C8.37345 7.64956 8.30691 7.47473 8.20849 7.31774C8.11007 7.16076 7.98169 7.0247 7.83068 6.91732C7.67968 6.80995 7.509 6.73338 7.3284 6.69197C7.1478 6.65056 6.96081 6.64512 6.77811 6.67598C6.59541 6.70683 6.42058 6.77337 6.2636 6.87179C6.10661 6.97022 5.97055 7.0986 5.86318 7.2496C5.64633 7.55457 5.55952 7.93319 5.62183 8.30217L5.62083 8.29417L7.06056 17.1175C7.12548 17.4571 7.30395 17.7645 7.56667 17.9892C7.82939 18.214 8.16074 18.3427 8.50628 18.3542H15.41L20.8179 23.7632C20.9475 23.898 21.1026 24.0055 21.2742 24.0796C21.4459 24.1537 21.6305 24.1928 21.8175 24.1946C22.0044 24.1964 22.1898 24.161 22.3628 24.0903C22.5359 24.0196 22.6931 23.9151 22.8253 23.7829C22.9575 23.6508 23.062 23.4936 23.1326 23.3205C23.2033 23.1475 23.2388 22.962 23.2369 22.7751C23.2351 22.5882 23.196 22.4035 23.1219 22.2319C23.0479 22.0603 22.9403 21.9052 22.8056 21.7756L17.0097 15.9757ZM9.10817 3.59907C9.10817 4.31276 8.82465 4.99722 8.32 5.50188C7.81534 6.00654 7.13088 6.29005 6.41718 6.29005C5.70349 6.29005 5.01903 6.00654 4.51437 5.50188C4.00971 4.99722 3.7262 4.31276 3.7262 3.59907C3.7262 2.88537 4.00971 2.20091 4.51437 1.69625C5.01903 1.19159 5.70349 0.908081 6.41718 0.908081C7.13088 0.908081 7.81534 1.19159 8.32 1.69625C8.82465 2.20091 9.10817 2.88537 9.10817 3.59907Z" fill="#0385D1"/>
</svg>
