<svg width="24" height="25" viewBox="0 0 24 25" fill="none" xmlns="http://www.w3.org/2000/svg">
<path d="M5 19.9076H6.425L16.2 10.1326L14.775 8.70759L5 18.4826V19.9076ZM3 21.9076V17.6576L16.2 4.48259C16.4 4.29926 16.6208 4.15759 16.8625 4.05759C17.1042 3.95759 17.3583 3.90759 17.625 3.90759C17.8917 3.90759 18.15 3.95759 18.4 4.05759C18.65 4.15759 18.8667 4.30759 19.05 4.50759L20.425 5.90759C20.625 6.09093 20.7708 6.30759 20.8625 6.55759C20.9542 6.80759 21 7.05759 21 7.30759C21 7.57426 20.9542 7.82843 20.8625 8.07009C20.7708 8.31176 20.625 8.53259 20.425 8.73259L7.25 21.9076H3ZM15.475 9.43259L14.775 8.70759L16.2 10.1326L15.475 9.43259Z" fill="#1D1B20"/>
</svg>
