<svg width="23" height="25" viewBox="0 0 23 25" fill="none" xmlns="http://www.w3.org/2000/svg">
<path d="M11.2473 13.1773C16.6215 13.1773 22.1361 16.6715 22.4932 23.6912C22.507 23.9617 22.4128 24.2267 22.2313 24.4279C22.0498 24.6291 21.7959 24.75 21.5253 24.7641C18.6896 24.9086 5.55681 24.9972 0.970627 24.7641C0.699814 24.7503 0.445554 24.6296 0.263775 24.4284C0.0819955 24.2271 -0.0124142 23.962 0.00131213 23.6912C0.3585 16.6728 5.8731 13.1773 11.2473 13.1773ZM11.2473 0.907471C9.89138 0.907471 8.59101 1.4461 7.63225 2.40486C6.67348 3.36363 6.13486 4.66399 6.13486 6.01989C6.13486 7.37579 6.67348 8.67616 7.63225 9.63492C8.59101 10.5937 9.89138 11.1323 11.2473 11.1323C12.6032 11.1323 13.9035 10.5937 14.8623 9.63492C15.8211 8.67616 16.3597 7.37579 16.3597 6.01989C16.3597 4.66399 15.8211 3.36363 14.8623 2.40486C13.9035 1.4461 12.6032 0.907471 11.2473 0.907471Z" fill="#0385D1"/>
</svg>
