<svg width="25" height="25" viewBox="0 0 25 25" fill="none" xmlns="http://www.w3.org/2000/svg">
<path d="M17.6319 15.3076C17.7279 14.5156 17.7999 13.7236 17.7999 12.9076C17.7999 12.0916 17.7279 11.2996 17.6319 10.5076H21.6879C21.8799 11.2756 21.9999 12.0796 21.9999 12.9076C21.9999 13.7356 21.8799 14.5396 21.6879 15.3076M15.5079 21.9796C16.2279 20.6476 16.7799 19.2076 17.1639 17.7076H20.7039C19.5413 19.7095 17.6968 21.226 15.5079 21.9796ZM15.2079 15.3076H9.5919C9.4719 14.5156 9.3999 13.7236 9.3999 12.9076C9.3999 12.0916 9.4719 11.2876 9.5919 10.5076H15.2079C15.3159 11.2876 15.3999 12.0916 15.3999 12.9076C15.3999 13.7236 15.3159 14.5156 15.2079 15.3076ZM12.3999 22.4596C11.4039 21.0196 10.5999 19.4236 10.1079 17.7076H14.6919C14.1999 19.4236 13.3959 21.0196 12.3999 22.4596ZM7.5999 8.10759H4.0959C5.24627 6.10003 7.08949 4.58108 9.2799 3.83559C8.5599 5.16759 8.0199 6.60759 7.5999 8.10759ZM4.0959 17.7076H7.5999C8.0199 19.2076 8.5599 20.6476 9.2799 21.9796C7.09382 21.2264 5.25305 19.7094 4.0959 17.7076ZM3.1119 15.3076C2.9199 14.5396 2.7999 13.7356 2.7999 12.9076C2.7999 12.0796 2.9199 11.2756 3.1119 10.5076H7.1679C7.0719 11.2996 6.9999 12.0916 6.9999 12.9076C6.9999 13.7236 7.0719 14.5156 7.1679 15.3076M12.3999 3.34359C13.3959 4.78359 14.1999 6.39159 14.6919 8.10759H10.1079C10.5999 6.39159 11.4039 4.78359 12.3999 3.34359ZM20.7039 8.10759H17.1639C16.7878 6.62153 16.2316 5.18692 15.5079 3.83559C17.7159 4.59159 19.5519 6.11559 20.7039 8.10759ZM12.3999 0.907593C5.7639 0.907593 0.399902 6.30759 0.399902 12.9076C0.399902 16.0902 1.66418 19.1424 3.91462 21.3929C5.02892 22.5072 6.35179 23.3911 7.8077 23.9941C9.26361 24.5972 10.824 24.9076 12.3999 24.9076C15.5825 24.9076 18.6347 23.6433 20.8852 21.3929C23.1356 19.1424 24.3999 16.0902 24.3999 12.9076C24.3999 11.3317 24.0895 9.7713 23.4865 8.31539C22.8834 6.85948 21.9995 5.53661 20.8852 4.42231C19.7709 3.30801 18.448 2.42409 16.9921 1.82104C15.5362 1.21798 13.9758 0.907593 12.3999 0.907593Z" fill="black"/>
</svg>
