<svg width="25" height="25" viewBox="0 0 25 25" fill="none" xmlns="http://www.w3.org/2000/svg">
<path d="M12.1821 7.47009C12.1821 7.47009 12.1821 7.47009 11.2796 6.28259C10.2346 4.90509 8.69088 3.90759 6.83838 3.90759C3.8815 3.90759 1.49463 6.29447 1.49463 9.25134C1.49463 10.3557 1.82713 11.377 2.39713 12.2201C3.359 13.657 12.1821 22.9076 12.1821 22.9076M12.1821 7.47009C12.1821 7.47009 12.1821 7.65699 13.0846 6.28259C14.1296 4.90509 15.6734 3.90759 17.5259 3.90759C20.4828 3.90759 22.8696 6.29447 22.8696 9.25134C22.8696 10.3557 22.5371 11.377 21.9671 12.2201C21.0053 13.657 12.1821 22.9076 12.1821 22.9076" stroke="#D10333" stroke-width="2" stroke-linecap="round" stroke-linejoin="round"/>
</svg>
