<svg width="24" height="25" viewBox="0 0 24 25" fill="none" xmlns="http://www.w3.org/2000/svg">
<path d="M12 6.97009C12 6.97009 12 6.97009 11.0975 5.78259C10.0525 4.40509 8.50875 3.40759 6.65625 3.40759C3.69937 3.40759 1.3125 5.79447 1.3125 8.75134C1.3125 9.85572 1.645 10.877 2.215 11.7201C3.17687 13.157 12 22.4076 12 22.4076M12 6.97009C12 6.97009 12 7.15699 12.9025 5.78259C13.9475 4.40509 15.4913 3.40759 17.3438 3.40759C20.3006 3.40759 22.6875 5.79447 22.6875 8.75134C22.6875 9.85572 22.355 10.877 21.785 11.7201C20.8231 13.157 12 22.4076 12 22.4076" fill="#D10333" stroke="#D10333" stroke-width="2" stroke-linecap="round" stroke-linejoin="round"/>
</svg>
