<svg width="24" height="25" viewBox="0 0 24 25" fill="none" xmlns="http://www.w3.org/2000/svg">
<path d="M16 8.90759C17.5913 8.90759 19.1174 9.53973 20.2426 10.665C21.3679 11.7902 22 13.3163 22 14.9076V21.9076H18V14.9076C18 14.3772 17.7893 13.8685 17.4142 13.4934C17.0391 13.1183 16.5304 12.9076 16 12.9076C15.4696 12.9076 14.9609 13.1183 14.5858 13.4934C14.2107 13.8685 14 14.3772 14 14.9076V21.9076H10V14.9076C10 13.3163 10.6321 11.7902 11.7574 10.665C12.8826 9.53973 14.4087 8.90759 16 8.90759Z" stroke="#5698D9" stroke-width="2" stroke-linecap="round" stroke-linejoin="round"/>
<path d="M6 9.90759H2V21.9076H6V9.90759Z" stroke="#5698D9" stroke-width="2" stroke-linecap="round" stroke-linejoin="round"/>
<path d="M4 6.90759C5.10457 6.90759 6 6.01216 6 4.90759C6 3.80302 5.10457 2.90759 4 2.90759C2.89543 2.90759 2 3.80302 2 4.90759C2 6.01216 2.89543 6.90759 4 6.90759Z" stroke="#5698D9" stroke-width="2" stroke-linecap="round" stroke-linejoin="round"/>
</svg>
