<svg width="25" height="26" viewBox="0 0 25 26" fill="none" xmlns="http://www.w3.org/2000/svg">
<path d="M4.19312 21.1002C3.64312 21.1002 3.17228 20.9044 2.78062 20.5127C2.38895 20.1211 2.19312 19.6502 2.19312 19.1002V7.10022C2.19312 6.55022 2.38895 6.07939 2.78062 5.68772C3.17228 5.29605 3.64312 5.10022 4.19312 5.10022H20.1931C20.7431 5.10022 21.2139 5.29605 21.6056 5.68772C21.9973 6.07939 22.1931 6.55022 22.1931 7.10022V19.1002C22.1931 19.6502 21.9973 20.1211 21.6056 20.5127C21.2139 20.9044 20.7431 21.1002 20.1931 21.1002H4.19312ZM12.1931 14.1002L4.19312 9.10022V19.1002H20.1931V9.10022L12.1931 14.1002ZM12.1931 12.1002L20.1931 7.10022H4.19312L12.1931 12.1002ZM4.19312 9.10022V7.10022V19.1002V9.10022Z" fill="#1D1B20"/>
</svg>
