<svg width="24" height="25" viewBox="0 0 24 25" fill="none" xmlns="http://www.w3.org/2000/svg">
<path d="M12 12.4076C11.337 12.4076 10.7011 12.1442 10.2322 11.6754C9.76339 11.2065 9.5 10.5706 9.5 9.90759C9.5 9.24455 9.76339 8.60867 10.2322 8.13983C10.7011 7.67098 11.337 7.40759 12 7.40759C12.663 7.40759 13.2989 7.67098 13.7678 8.13983C14.2366 8.60867 14.5 9.24455 14.5 9.90759C14.5 10.2359 14.4353 10.561 14.3097 10.8643C14.1841 11.1676 13.9999 11.4432 13.7678 11.6754C13.5356 11.9075 13.26 12.0917 12.9567 12.2173C12.6534 12.3429 12.3283 12.4076 12 12.4076ZM12 2.90759C10.1435 2.90759 8.36301 3.64509 7.05025 4.95785C5.7375 6.2706 5 8.05108 5 9.90759C5 15.1576 12 22.9076 12 22.9076C12 22.9076 19 15.1576 19 9.90759C19 8.05108 18.2625 6.2706 16.9497 4.95785C15.637 3.64509 13.8565 2.90759 12 2.90759Z" fill="#5698D9"/>
</svg>
