<svg width="24" height="25" viewBox="0 0 24 25" fill="none" xmlns="http://www.w3.org/2000/svg">
<path d="M12.0001 1.39185C18.3605 1.39185 23.5162 6.54761 23.5162 12.908C23.5162 19.2683 18.3605 24.4241 12.0001 24.4241C5.63977 24.4241 0.484009 19.2683 0.484009 12.908C0.484009 6.54761 5.63977 1.39185 12.0001 1.39185ZM12.0001 17.5144C11.6947 17.5144 11.4018 17.6357 11.1858 17.8517C10.9698 18.0677 10.8485 18.3606 10.8485 18.666C10.8485 18.9714 10.9698 19.2644 11.1858 19.4803C11.4018 19.6963 11.6947 19.8176 12.0001 19.8176C12.3055 19.8176 12.5985 19.6963 12.8144 19.4803C13.0304 19.2644 13.1517 18.9714 13.1517 18.666C13.1517 18.3606 13.0304 18.0677 12.8144 17.8517C12.5985 17.6357 12.3055 17.5144 12.0001 17.5144ZM12.0001 6.5741C10.893 6.5741 9.83113 7.01392 9.04824 7.79681C8.26535 8.57969 7.82553 9.64152 7.82553 10.7487C7.82553 11.0541 7.94686 11.347 8.16283 11.563C8.3788 11.779 8.67172 11.9003 8.97714 11.9003C9.28257 11.9003 9.57549 11.779 9.79145 11.563C10.0074 11.347 10.1288 11.0541 10.1288 10.7487C10.1291 10.409 10.222 10.0758 10.3973 9.78489C10.5726 9.49395 10.8238 9.25622 11.124 9.09718C11.4241 8.93815 11.7619 8.86381 12.1011 8.88215C12.4403 8.90048 12.7681 9.01078 13.0494 9.20124C13.3306 9.39169 13.5548 9.65511 13.6977 9.96325C13.8407 10.2714 13.897 10.6126 13.8608 10.9504C13.8246 11.2881 13.6971 11.6096 13.4921 11.8805C13.287 12.1513 13.0121 12.3612 12.6968 12.4876C11.9184 12.7986 10.8485 13.5955 10.8485 14.9233V15.2112C10.8485 15.5166 10.9698 15.8095 11.1858 16.0255C11.4018 16.2415 11.6947 16.3628 12.0001 16.3628C12.3055 16.3628 12.5985 16.2415 12.8144 16.0255C13.0304 15.8095 13.1517 15.5166 13.1517 15.2112C13.1517 14.9302 13.2093 14.7897 13.4523 14.6699L13.5525 14.6239C14.4517 14.2621 15.197 13.5989 15.6608 12.7478C16.1245 11.8967 16.2778 10.9108 16.0942 9.95913C15.9107 9.00744 15.4018 8.14923 14.6549 7.53163C13.9079 6.91403 12.9693 6.57551 12.0001 6.5741Z" fill="black"/>
</svg>
