<svg width="24" height="25" viewBox="0 0 24 25" fill="none" xmlns="http://www.w3.org/2000/svg">
<path fill-rule="evenodd" clip-rule="evenodd" d="M3.74023 4.7332C3.74023 4.36809 3.88527 4.01794 4.14344 3.75977C4.40161 3.5016 4.75176 3.35657 5.11686 3.35657H18.8832C19.2483 3.35657 19.5984 3.5016 19.8566 3.75977C20.1148 4.01794 20.2598 4.36809 20.2598 4.7332V6.64763C20.2597 7.1344 20.0662 7.60119 19.722 7.94533L14.7533 12.9141V19.7275C14.7533 19.8996 14.7093 20.0688 14.6255 20.2191C14.5417 20.3694 14.4209 20.4959 14.2745 20.5863C14.1281 20.6768 13.961 20.7284 13.7891 20.7361C13.6172 20.7438 13.4461 20.7075 13.2922 20.6305L9.88092 18.9253C9.69037 18.8301 9.53011 18.6836 9.4181 18.5024C9.30609 18.3212 9.24676 18.1123 9.24676 17.8993V12.9141L4.27804 7.94533C3.93379 7.60119 3.74034 7.1344 3.74023 6.64763V4.7332ZM5.57574 5.19207V6.64763L10.6785 11.7503C10.8064 11.8782 10.908 12.0299 10.9773 12.197C11.0465 12.3641 11.0822 12.5432 11.0823 12.7241V17.4735L12.9178 18.3912V12.7241C12.9178 12.3588 13.0628 12.0082 13.3216 11.7513L18.4243 6.64671V5.19207H5.57574Z" fill="black"/>
</svg>
