<svg width="24" height="25" viewBox="0 0 24 25" fill="none" xmlns="http://www.w3.org/2000/svg">
<path d="M12.7496 3.65759V5.40759H14.7246C15.0756 5.40759 15.4186 5.51359 15.7086 5.71059L17.4056 6.86459C17.4476 6.89259 17.4942 6.90693 17.5455 6.90759H21.6476C21.8465 6.90759 22.0372 6.98661 22.1779 7.12726C22.3185 7.26791 22.3976 7.45868 22.3976 7.65759C22.3976 7.85651 22.3185 8.04727 22.1779 8.18792C22.0372 8.32858 21.8465 8.40759 21.6476 8.40759H20.0695L23.4356 16.0876C23.5029 16.2412 23.5168 16.4129 23.4751 16.5753C23.4334 16.7377 23.3385 16.8815 23.2055 16.9836C23.1055 17.0576 23.0022 17.1263 22.8955 17.1896C22.6424 17.3419 22.3783 17.4752 22.1056 17.5886C21.201 17.9668 20.23 18.1603 19.2495 18.1576C18.2694 18.1618 17.2984 17.9687 16.3946 17.5896C16.1217 17.4759 15.8577 17.3422 15.6046 17.1896C15.4982 17.1286 15.3957 17.0611 15.2976 16.9876L15.2926 16.9836C15.1596 16.8815 15.0647 16.7377 15.023 16.5753C14.9813 16.4129 14.9952 16.2412 15.0626 16.0876L18.4305 8.40759H17.5445C17.1935 8.40759 16.8506 8.30159 16.5606 8.10459L14.8636 6.95059C14.8222 6.92261 14.7735 6.90763 14.7236 6.90759H12.7496V21.4076H17.2365C17.4355 21.4076 17.6262 21.4866 17.7669 21.6273C17.9075 21.7679 17.9865 21.9587 17.9865 22.1576C17.9865 22.3565 17.9075 22.5473 17.7669 22.6879C17.6262 22.8286 17.4355 22.9076 17.2365 22.9076H6.76255C6.56364 22.9076 6.37287 22.8286 6.23222 22.6879C6.09157 22.5473 6.01255 22.3565 6.01255 22.1576C6.01255 21.9587 6.09157 21.7679 6.23222 21.6273C6.37287 21.4866 6.56364 21.4076 6.76255 21.4076H11.2496V6.90759H9.27455C9.22464 6.90763 9.17588 6.92261 9.13455 6.95059L7.43855 8.10459C7.14855 8.30159 6.80555 8.40759 6.45455 8.40759H5.56855L8.93655 16.0876C9.00174 16.2368 9.0166 16.4032 8.9789 16.5615C8.94119 16.7199 8.85297 16.8618 8.72755 16.9656C8.64755 17.0306 8.56755 17.0916 8.41755 17.1886C8.1648 17.3526 7.90005 17.4974 7.62555 17.6216C6.7226 18.0326 5.74164 18.2441 4.74955 18.2416C3.75746 18.2441 2.7765 18.0326 1.87355 17.6216C1.59905 17.4974 1.3343 17.3526 1.08155 17.1886C0.975109 17.1199 0.871992 17.0461 0.772551 16.9676C0.647866 16.8628 0.560154 16.7207 0.522345 16.5622C0.484536 16.4038 0.49863 16.2374 0.562551 16.0876L3.92955 8.40759H2.35255C2.15364 8.40759 1.96287 8.32858 1.82222 8.18792C1.68157 8.04727 1.60255 7.85651 1.60255 7.65759C1.60255 7.45868 1.68157 7.26791 1.82222 7.12726C1.96287 6.98661 2.15364 6.90759 2.35255 6.90759H6.45455C6.50522 6.90759 6.55222 6.89326 6.59555 6.86459L8.29055 5.71059C8.58055 5.51259 8.92455 5.40759 9.27555 5.40759H11.2496V3.65759C11.2496 3.45868 11.3286 3.26791 11.4692 3.12726C11.6099 2.98661 11.8006 2.90759 11.9996 2.90759C12.1985 2.90759 12.3892 2.98661 12.5299 3.12726C12.6705 3.26791 12.7496 3.45868 12.7496 3.65759ZM2.19255 16.1056C2.97938 16.5251 3.85786 16.7433 4.74955 16.7406C5.64124 16.7433 6.51972 16.5251 7.30655 16.1056L4.74955 10.2756L2.19255 16.1056ZM16.7025 16.0816C16.7845 16.1216 16.8762 16.1636 16.9776 16.2076C17.5076 16.4306 18.2825 16.6576 19.2495 16.6576C20.1311 16.66 21.0018 16.463 21.7966 16.0816L19.2495 10.2746L16.7025 16.0816Z" fill="black"/>
</svg>
