<svg width="24" height="25" viewBox="0 0 24 25" fill="none" xmlns="http://www.w3.org/2000/svg">
<g clip-path="url(#clip0_1201_3592)">
<path d="M15.0501 5.90759C16.0268 6.09816 16.9244 6.57585 17.6281 7.27953C18.3318 7.98321 18.8095 8.88086 19.0001 9.85759M15.0501 1.90759C17.0793 2.13303 18.9716 3.04177 20.4163 4.4846C21.8609 5.92743 22.7721 7.8186 23.0001 9.84759M22.0001 17.8276V20.8276C22.0012 21.1061 21.9441 21.3818 21.8326 21.6369C21.721 21.8921 21.5574 22.1212 21.3521 22.3095C21.1469 22.4977 20.9046 22.6411 20.6408 22.7303C20.377 22.8195 20.0974 22.8527 19.8201 22.8276C16.7429 22.4932 13.7871 21.4417 11.1901 19.7576C8.77388 18.2223 6.72539 16.1738 5.19006 13.7576C3.50003 11.1488 2.4483 8.17859 2.12006 5.08759C2.09507 4.81106 2.12793 4.53235 2.21656 4.26922C2.30518 4.00608 2.44763 3.76428 2.63482 3.55921C2.82202 3.35415 3.04986 3.1903 3.30385 3.07811C3.55783 2.96593 3.8324 2.90785 4.11006 2.90759H7.11006C7.59536 2.90282 8.06585 3.07467 8.43382 3.39113C8.80179 3.70758 9.04213 4.14704 9.11005 4.62759C9.23668 5.58766 9.47151 6.53032 9.81006 7.43759C9.9446 7.79552 9.97372 8.18451 9.89396 8.55847C9.81421 8.93244 9.62892 9.2757 9.36005 9.54759L8.09006 10.8176C9.51361 13.3211 11.5865 15.394 14.0901 16.8176L15.3601 15.5476C15.6319 15.2787 15.9752 15.0934 16.3492 15.0137C16.7231 14.9339 17.1121 14.963 17.4701 15.0976C18.3773 15.4361 19.32 15.671 20.2801 15.7976C20.7658 15.8661 21.2095 16.1108 21.5266 16.4851C21.8437 16.8594 22.0122 17.3372 22.0001 17.8276Z" stroke="#5698D9" stroke-width="2" stroke-linecap="round" stroke-linejoin="round"/>
</g>
<defs>
<clipPath id="clip0_1201_3592">
<rect width="24" height="24" fill="white" transform="translate(0 0.907593)"/>
</clipPath>
</defs>
</svg>
