<svg width="26" height="25" viewBox="0 0 26 25" fill="none" xmlns="http://www.w3.org/2000/svg">
<path d="M3.22421 24.5162C2.55213 24.5162 1.97699 24.2771 1.49879 23.7989C1.02059 23.3207 0.781088 22.7452 0.780273 22.0723V8.63064C0.780273 7.95856 1.01978 7.38342 1.49879 6.90522C1.9778 6.42702 2.55294 6.18752 3.22421 6.1867H8.11209V3.74277C8.11209 3.07068 8.35159 2.49554 8.8306 2.01735C9.30962 1.53915 9.88476 1.29964 10.556 1.29883H15.4439C16.116 1.29883 16.6915 1.53833 17.1705 2.01735C17.6496 2.49636 17.8887 3.0715 17.8878 3.74277V6.1867H22.7757C23.4478 6.1867 24.0233 6.42621 24.5024 6.90522C24.9814 7.38423 25.2205 7.95937 25.2196 8.63064V22.0723C25.2196 22.7444 24.9806 23.3199 24.5024 23.7989C24.0242 24.2779 23.4486 24.517 22.7757 24.5162H3.22421ZM3.22421 22.0723H22.7757V8.63064H3.22421V22.0723ZM10.556 6.1867H15.4439V3.74277H10.556V6.1867Z" fill="black"/>
<path d="M18.7542 9.77637C19.0528 9.77637 19.3148 9.89174 19.5295 10.1064C19.7459 10.3228 19.8596 10.589 19.8596 10.8926C19.8596 11.1582 19.7725 11.395 19.6057 11.5947L19.5295 11.6777L11.6868 19.542L11.6858 19.543C11.4713 19.7574 11.2097 19.8719 10.9114 19.8721C10.6129 19.8721 10.3506 19.7575 10.136 19.543L6.45923 15.8672C6.24125 15.6492 6.13202 15.38 6.14087 15.0742C6.14963 14.7735 6.2658 14.5099 6.48071 14.2949C6.6975 14.0781 6.96415 13.9642 7.26782 13.9648C7.53274 13.9655 7.76919 14.0528 7.96899 14.2188L8.05298 14.2949V14.2959L10.9114 17.1729L17.9788 10.1064C18.1934 9.89181 18.4557 9.77644 18.7542 9.77637Z" fill="black" stroke="black" stroke-width="0.5"/>
</svg>
