<svg width="24" height="25" viewBox="0 0 24 25" fill="none" xmlns="http://www.w3.org/2000/svg">
<path d="M2.4 24.3076C1.74 24.3076 1.1752 24.0728 0.7056 23.6032C0.236 23.1336 0.0008 22.5684 0 21.9076V8.70757C0 8.04757 0.2352 7.48277 0.7056 7.01317C1.176 6.54357 1.7408 6.30837 2.4 6.30757H7.2V3.90757C7.2 3.24757 7.4352 2.68277 7.9056 2.21317C8.376 1.74357 8.9408 1.50837 9.6 1.50757H14.4C15.06 1.50757 15.6252 1.74277 16.0956 2.21317C16.566 2.68357 16.8008 3.24837 16.8 3.90757V6.30757H21.6C22.26 6.30757 22.8252 6.54277 23.2956 7.01317C23.766 7.48357 24.0008 8.04837 24 8.70757V21.9076C24 22.5676 23.7652 23.1328 23.2956 23.6032C22.826 24.0736 22.2608 24.3084 21.6 24.3076H2.4ZM2.4 21.9076H21.6V8.70757H2.4V21.9076ZM9.6 6.30757H14.4V3.90757H9.6V6.30757Z" fill="black"/>
</svg>
