<svg width="16" height="17" viewBox="0 0 16 17" fill="none" xmlns="http://www.w3.org/2000/svg">
<path d="M7.33337 12.241H8.66671V8.24097H7.33337V12.241ZM8.00004 6.90763C8.18893 6.90763 8.34738 6.84363 8.47538 6.71563C8.60338 6.58763 8.66715 6.42941 8.66671 6.24097C8.66626 6.05252 8.60226 5.8943 8.47471 5.7663C8.34715 5.6383 8.18893 5.5743 8.00004 5.5743C7.81115 5.5743 7.65293 5.6383 7.52537 5.7663C7.39782 5.8943 7.33382 6.05252 7.33337 6.24097C7.33293 6.42941 7.39693 6.58786 7.52537 6.7163C7.65382 6.84474 7.81204 6.90852 8.00004 6.90763ZM8.00004 15.5743C7.07782 15.5743 6.21115 15.3992 5.40004 15.049C4.58893 14.6987 3.88338 14.2239 3.28338 13.6243C2.68338 13.0247 2.20849 12.3192 1.85871 11.5076C1.50893 10.6961 1.33382 9.82941 1.33337 8.90763C1.33293 7.98586 1.50804 7.11919 1.85871 6.30763C2.20937 5.49608 2.68426 4.79052 3.28338 4.19097C3.88249 3.59141 4.58804 3.11652 5.40004 2.7663C6.21204 2.41608 7.07871 2.24097 8.00004 2.24097C8.92137 2.24097 9.78804 2.41608 10.6 2.7663C11.412 3.11652 12.1176 3.59141 12.7167 4.19097C13.3158 4.79052 13.7909 5.49608 14.142 6.30763C14.4932 7.11919 14.668 7.98586 14.6667 8.90763C14.6654 9.82941 14.4903 10.6961 14.1414 11.5076C13.7925 12.3192 13.3176 13.0247 12.7167 13.6243C12.1158 14.2239 11.4103 14.699 10.6 15.0496C9.78982 15.4003 8.92315 15.5752 8.00004 15.5743Z" fill="black"/>
</svg>
