<svg width="16" height="17" viewBox="0 0 16 17" fill="none" xmlns="http://www.w3.org/2000/svg">
<path fill-rule="evenodd" clip-rule="evenodd" d="M3.52103 2.63904C2.96689 2.63904 2.43544 2.85917 2.04361 3.25101C1.65177 3.64284 1.43164 4.17429 1.43164 4.72843V13.086C1.43164 13.6401 1.65177 14.1716 2.04361 14.5634C2.43544 14.9552 2.96689 15.1754 3.52103 15.1754H11.8786C12.4327 15.1754 12.9642 14.9552 13.356 14.5634C13.7478 14.1716 13.968 13.6401 13.968 13.086V9.60367C13.968 9.41895 13.8946 9.24181 13.764 9.11119C13.6334 8.98058 13.4562 8.9072 13.2715 8.9072C13.0868 8.9072 12.9096 8.98058 12.779 9.11119C12.6484 9.24181 12.575 9.41895 12.575 9.60367V13.086C12.575 13.2707 12.5017 13.4478 12.3711 13.5785C12.2404 13.7091 12.0633 13.7824 11.8786 13.7824H3.52103C3.33632 13.7824 3.15917 13.7091 3.02856 13.5785C2.89794 13.4478 2.82457 13.2707 2.82457 13.086V4.72843C2.82457 4.54371 2.89794 4.36657 3.02856 4.23595C3.15917 4.10534 3.33632 4.03196 3.52103 4.03196H9.09273C9.27745 4.03196 9.45459 3.95859 9.58521 3.82797C9.71582 3.69736 9.7892 3.52021 9.7892 3.3355C9.7892 3.15079 9.71582 2.97364 9.58521 2.84303C9.45459 2.71242 9.27745 2.63904 9.09273 2.63904H3.52103ZM14.2173 4.75977C14.3778 4.66847 14.4954 4.51719 14.5444 4.33919C14.5934 4.16119 14.5697 3.97102 14.4785 3.81049C14.3859 3.65123 14.2345 3.53465 14.0569 3.48582C13.8792 3.43698 13.6895 3.45978 13.5285 3.54932C13.2827 3.68861 13.0452 3.84462 12.8111 4.00202C12.2177 4.40116 11.6452 4.83052 11.0958 5.28838C9.95217 6.23975 8.57874 7.57975 7.44699 9.27076C7.09514 8.80743 6.68661 8.39002 6.23097 8.02827C5.93358 7.79635 5.60276 7.5686 5.24547 7.43906C5.07203 7.37543 4.87971 7.3833 4.71207 7.46095C4.54443 7.5386 4.4145 7.67966 4.35086 7.85311C4.28723 8.02655 4.2951 8.21817 4.37275 8.38581C4.4504 8.55346 4.59147 8.68338 4.76491 8.74702C4.78232 8.75398 5.0226 8.85149 5.37501 9.12659C5.77757 9.44 6.33335 9.98951 6.86962 10.9074C6.93131 11.0131 7.01976 11.1007 7.12606 11.1613C7.23236 11.2219 7.35275 11.2535 7.47512 11.2528C7.59749 11.2521 7.71751 11.2191 7.8231 11.1573C7.92869 11.0954 8.01612 11.0069 8.07659 10.9005C9.17979 8.95665 10.7141 7.41817 11.9865 6.35954C12.6203 5.83232 13.1845 5.42907 13.587 5.15884C13.7925 5.02024 14.0014 4.88443 14.2166 4.76046L14.2173 4.75977Z" fill="#737373"/>
</svg>
