<svg width="16" height="17" viewBox="0 0 16 17" fill="none" xmlns="http://www.w3.org/2000/svg">
<path fill-rule="evenodd" clip-rule="evenodd" d="M7.52504 3.34055C8.48934 3.25825 9.45847 3.42786 10.3375 3.83276C11.2166 4.23766 11.9754 4.86396 12.5396 5.65032V4.54258C12.5396 4.40365 12.5948 4.27041 12.693 4.17217C12.7912 4.07393 12.9245 4.01874 13.0634 4.01874C13.2023 4.01874 13.3355 4.07393 13.4338 4.17217C13.532 4.27041 13.5872 4.40365 13.5872 4.54258V7.51099H10.619C10.4801 7.51099 10.3468 7.4558 10.2486 7.35756C10.1504 7.25932 10.0952 7.12608 10.0952 6.98715C10.0952 6.84822 10.1504 6.71498 10.2486 6.61674C10.3468 6.5185 10.4801 6.46331 10.619 6.46331H11.8251C11.3475 5.71591 10.6614 5.1248 9.85159 4.763C9.04177 4.40121 8.14372 4.28458 7.26837 4.42752C6.39301 4.57046 5.5787 4.96671 4.92603 5.56733C4.27336 6.16794 3.81091 6.9466 3.59582 7.80713C3.57995 7.87472 3.55081 7.93849 3.51008 7.99472C3.46935 8.05096 3.41784 8.09853 3.35857 8.13468C3.29929 8.17082 3.23341 8.19482 3.16477 8.20528C3.09614 8.21574 3.0261 8.21245 2.95875 8.1956C2.8914 8.17875 2.82806 8.14867 2.77244 8.10713C2.71681 8.06558 2.66999 8.01338 2.63472 7.95358C2.59944 7.89377 2.57641 7.82755 2.56695 7.75877C2.55749 7.68998 2.56181 7.62 2.57964 7.55289C2.86217 6.4231 3.49064 5.40983 4.37719 4.65471C5.26374 3.8996 6.36406 3.44038 7.52435 3.34125L7.52504 3.34055ZM5.15047 13.7139C5.89915 14.1577 6.74114 14.4204 7.60933 14.4812C8.47752 14.5419 9.34789 14.399 10.1511 14.0638C10.9542 13.7286 11.668 13.2104 12.2355 12.5505C12.803 11.8906 13.2084 11.1072 13.4196 10.2629C13.451 10.1289 13.4285 9.98795 13.3569 9.87046C13.2852 9.75297 13.1702 9.66839 13.0368 9.63499C12.9033 9.6016 12.762 9.62207 12.6435 9.69199C12.525 9.7619 12.4387 9.87565 12.4034 10.0086C12.1882 10.869 11.7257 11.6474 11.0731 12.2479C10.4205 12.8484 9.60632 13.2445 8.73111 13.3874C7.8559 13.5304 6.958 13.4138 6.14828 13.0522C5.33857 12.6905 4.6525 12.0996 4.1748 11.3525H5.38094C5.51986 11.3525 5.65309 11.2973 5.75133 11.199C5.84956 11.1008 5.90474 10.9675 5.90474 10.8286C5.90474 10.6897 5.84956 10.5564 5.75133 10.4582C5.65309 10.36 5.51986 10.3048 5.38094 10.3048H2.41272V13.2732C2.41272 13.4121 2.46791 13.5454 2.56614 13.6436C2.66437 13.7418 2.7976 13.797 2.93652 13.797C3.07544 13.797 3.20868 13.7418 3.30691 13.6436C3.40514 13.5454 3.46033 13.4121 3.46033 13.2732V12.1654C3.91065 12.7929 4.48613 13.3201 5.15047 13.7139Z" fill="black"/>
</svg>
