<svg width="626" height="121" viewBox="0 0 626 121" fill="none" xmlns="http://www.w3.org/2000/svg">
<rect x="47.0352" y="60.6553" width="531.936" height="60.0293" rx="30.0146" fill="white"/>
<path d="M16.5944 47.3164V11.68H40.6072V17.892H24.1288V26.3835H39.3717V32.5955H24.1288V41.1044H40.6768V47.3164H16.5944ZM68.696 28.2106L61.9098 28.6282C61.7938 28.0482 61.5444 27.5262 61.1616 27.0621C60.7788 26.5865 60.2741 26.2095 59.6477 25.9311C59.0329 25.6411 58.2963 25.4961 57.4379 25.4961C56.2894 25.4961 55.3208 25.7397 54.532 26.2269C53.7431 26.7025 53.3487 27.3406 53.3487 28.141C53.3487 28.779 53.6039 29.3184 54.1143 29.7592C54.6248 30.2 55.5006 30.5539 56.7418 30.8207L61.5792 31.7951C64.1777 32.3287 66.1149 33.1871 67.391 34.3704C68.667 35.5536 69.305 37.1081 69.305 39.0337C69.305 40.7854 68.7888 42.3224 67.7564 43.6449C66.7356 44.9673 65.3319 45.9998 63.5455 46.7422C61.7706 47.473 59.7231 47.8384 57.4031 47.8384C53.8649 47.8384 51.046 47.1018 48.9464 45.6286C46.8583 44.1437 45.6345 42.1252 45.2749 39.5732L52.5657 39.1903C52.7861 40.2692 53.3197 41.0928 54.1665 41.6612C55.0134 42.218 56.098 42.4964 57.4205 42.4964C58.7197 42.4964 59.7637 42.247 60.5526 41.7482C61.353 41.2378 61.759 40.5824 61.7706 39.782C61.759 39.1091 61.4748 38.5581 60.918 38.1289C60.3612 37.6881 59.5027 37.3517 58.3427 37.1197L53.7141 36.1974C51.104 35.6754 49.161 34.7706 47.8849 33.483C46.6205 32.1953 45.9883 30.5539 45.9883 28.5586C45.9883 26.8417 46.4523 25.3627 47.3803 24.1214C48.32 22.8802 49.6366 21.9232 51.3303 21.2504C53.0355 20.5775 55.0308 20.2411 57.3161 20.2411C60.6918 20.2411 63.3482 20.9545 65.2855 22.3814C67.2344 23.8082 68.3712 25.7513 68.696 28.2106ZM86.0487 47.8384C83.3111 47.8384 80.9562 47.2584 78.9841 46.0984C77.0236 44.9267 75.5156 43.3027 74.46 41.2262C73.4159 39.1497 72.8939 36.7601 72.8939 34.0572C72.8939 31.3195 73.4217 28.9182 74.4774 26.8533C75.5446 24.7769 77.0584 23.1586 79.0189 21.9986C80.9794 20.8269 83.3111 20.2411 86.0139 20.2411C88.3456 20.2411 90.3873 20.6645 92.1389 21.5114C93.8906 22.3582 95.2768 23.5472 96.2977 25.0785C97.3185 26.6097 97.8811 28.4078 97.9855 30.4727H90.9905C90.7933 29.1386 90.2713 28.0656 89.4245 27.2536C88.5892 26.4299 87.493 26.0181 86.1357 26.0181C84.9873 26.0181 83.9839 26.3313 83.1254 26.9577C82.2786 27.5726 81.6174 28.4716 81.1418 29.6548C80.6662 30.8381 80.4284 32.2707 80.4284 33.9528C80.4284 35.658 80.6604 37.1081 81.1244 38.3029C81.6 39.4978 82.267 40.4084 83.1254 41.0348C83.9839 41.6612 84.9873 41.9744 86.1357 41.9744C86.9826 41.9744 87.7424 41.8004 88.4152 41.4524C89.0996 41.1044 89.6623 40.5998 90.1031 39.9386C90.5555 39.2657 90.8513 38.4595 90.9905 37.5199H97.9855C97.8695 39.5616 97.3127 41.3596 96.3151 42.9141C95.329 44.4569 93.966 45.6634 92.2259 46.5334C90.4859 47.4034 88.4268 47.8384 86.0487 47.8384ZM114.808 47.8384C112.105 47.8384 109.767 47.2642 107.795 46.1158C105.835 44.9557 104.321 43.3433 103.254 41.2784C102.186 39.2019 101.653 36.7949 101.653 34.0572C101.653 31.2963 102.186 28.8834 103.254 26.8185C104.321 24.7421 105.835 23.1296 107.795 21.9812C109.767 20.8211 112.105 20.2411 114.808 20.2411C117.51 20.2411 119.842 20.8211 121.803 21.9812C123.775 23.1296 125.294 24.7421 126.362 26.8185C127.429 28.8834 127.962 31.2963 127.962 34.0572C127.962 36.7949 127.429 39.2019 126.362 41.2784C125.294 43.3433 123.775 44.9557 121.803 46.1158C119.842 47.2642 117.51 47.8384 114.808 47.8384ZM114.842 42.0962C116.072 42.0962 117.099 41.7482 117.922 41.0522C118.746 40.3446 119.366 39.3817 119.784 38.1637C120.213 36.9457 120.428 35.5594 120.428 34.005C120.428 32.4505 120.213 31.0643 119.784 29.8462C119.366 28.6282 118.746 27.6654 117.922 26.9577C117.099 26.2501 116.072 25.8963 114.842 25.8963C113.601 25.8963 112.557 26.2501 111.71 26.9577C110.875 27.6654 110.243 28.6282 109.814 29.8462C109.396 31.0643 109.187 32.4505 109.187 34.005C109.187 35.5594 109.396 36.9457 109.814 38.1637C110.243 39.3817 110.875 40.3446 111.71 41.0522C112.557 41.7482 113.601 42.0962 114.842 42.0962ZM140.195 11.68V47.3164H132.782V11.68H140.195ZM153.546 31.8647V47.3164H146.133V11.68H153.337V25.3047H153.65C154.253 23.727 155.228 22.4916 156.573 21.5984C157.919 20.6935 159.607 20.2411 161.637 20.2411C163.493 20.2411 165.111 20.6471 166.492 21.4592C167.884 22.2596 168.962 23.4138 169.728 24.9219C170.505 26.4183 170.888 28.2106 170.877 30.2986V47.3164H163.464V31.6211C163.475 29.9738 163.058 28.692 162.211 27.7756C161.376 26.8591 160.204 26.4009 158.696 26.4009C157.687 26.4009 156.794 26.6155 156.016 27.0447C155.251 27.474 154.648 28.1004 154.207 28.924C153.778 29.736 153.557 30.7163 153.546 31.8647ZM184.331 47.821C182.626 47.821 181.107 47.5252 179.773 46.9336C178.439 46.3304 177.383 45.4429 176.606 44.2713C175.84 43.0881 175.457 41.6148 175.457 39.8516C175.457 38.3667 175.73 37.1197 176.275 36.1104C176.82 35.1012 177.563 34.2892 178.502 33.6744C179.442 33.0595 180.509 32.5955 181.704 32.2823C182.91 31.9691 184.175 31.7487 185.497 31.6211C187.052 31.4587 188.305 31.3079 189.256 31.1687C190.207 31.0179 190.897 30.7975 191.327 30.5075C191.756 30.2174 191.97 29.7882 191.97 29.2198V29.1154C191.97 28.0134 191.622 27.1607 190.926 26.5575C190.242 25.9543 189.267 25.6527 188.003 25.6527C186.669 25.6527 185.608 25.9485 184.819 26.5401C184.03 27.1201 183.508 27.851 183.253 28.7326L176.397 28.1758C176.745 26.5517 177.429 25.1481 178.45 23.9648C179.471 22.77 180.788 21.8536 182.4 21.2156C184.024 20.5659 185.903 20.2411 188.038 20.2411C189.523 20.2411 190.944 20.4151 192.301 20.7631C193.67 21.1112 194.882 21.6506 195.938 22.3814C197.005 23.1122 197.846 24.0518 198.461 25.2003C199.076 26.3371 199.383 27.7002 199.383 29.2894V47.3164H192.353V43.6101H192.144C191.715 44.4453 191.141 45.1819 190.422 45.82C189.702 46.4464 188.838 46.9394 187.829 47.299C186.82 47.647 185.654 47.821 184.331 47.821ZM186.454 42.7053C187.545 42.7053 188.508 42.4906 189.343 42.0614C190.178 41.6206 190.834 41.029 191.309 40.2866C191.785 39.5442 192.023 38.7031 192.023 37.7635V34.9272C191.791 35.078 191.472 35.2172 191.066 35.3448C190.671 35.4608 190.224 35.571 189.726 35.6754C189.227 35.7682 188.728 35.8552 188.229 35.9364C187.73 36.006 187.278 36.0698 186.872 36.1278C186.002 36.2554 185.242 36.4585 184.593 36.7369C183.943 37.0153 183.438 37.3923 183.079 37.8679C182.719 38.3319 182.539 38.9119 182.539 39.608C182.539 40.6172 182.905 41.3886 183.635 41.9222C184.378 42.4442 185.318 42.7053 186.454 42.7053ZM238.713 28.2106L231.926 28.6282C231.81 28.0482 231.561 27.5262 231.178 27.0621C230.795 26.5865 230.291 26.2095 229.664 25.9311C229.05 25.6411 228.313 25.4961 227.454 25.4961C226.306 25.4961 225.337 25.7397 224.549 26.2269C223.76 26.7025 223.365 27.3406 223.365 28.141C223.365 28.779 223.621 29.3184 224.131 29.7592C224.641 30.2 225.517 30.5539 226.758 30.8207L231.596 31.7951C234.194 32.3287 236.132 33.1871 237.408 34.3704C238.684 35.5536 239.322 37.1081 239.322 39.0337C239.322 40.7854 238.805 42.3224 237.773 43.6449C236.752 44.9673 235.349 45.9998 233.562 46.7422C231.787 47.473 229.74 47.8384 227.42 47.8384C223.882 47.8384 221.063 47.1018 218.963 45.6286C216.875 44.1437 215.651 42.1252 215.291 39.5732L222.582 39.1903C222.803 40.2692 223.336 41.0928 224.183 41.6612C225.03 42.218 226.115 42.4964 227.437 42.4964C228.736 42.4964 229.78 42.247 230.569 41.7482C231.37 41.2378 231.776 40.5824 231.787 39.782C231.776 39.1091 231.491 38.5581 230.935 38.1289C230.378 37.6881 229.519 37.3517 228.359 37.1197L223.731 36.1974C221.121 35.6754 219.178 34.7706 217.902 33.483C216.637 32.1953 216.005 30.5539 216.005 28.5586C216.005 26.8417 216.469 25.3627 217.397 24.1214C218.337 22.8802 219.653 21.9232 221.347 21.2504C223.052 20.5775 225.047 20.2411 227.333 20.2411C230.708 20.2411 233.365 20.9545 235.302 22.3814C237.251 23.8082 238.388 25.7513 238.713 28.2106ZM261.129 35.9364V20.5891H268.542V47.3164H261.425V42.4616H261.146C260.543 44.0277 259.54 45.2863 258.136 46.2376C256.744 47.1888 255.045 47.6644 253.038 47.6644C251.251 47.6644 249.679 47.2584 248.322 46.4464C246.965 45.6344 245.903 44.4801 245.138 42.9837C244.384 41.4872 244.001 39.695 243.989 37.6069V20.5891H251.402V36.2844C251.414 37.8621 251.837 39.1091 252.672 40.0256C253.507 40.942 254.627 41.4002 256.031 41.4002C256.924 41.4002 257.759 41.1972 258.536 40.7912C259.313 40.3736 259.94 39.7588 260.415 38.9467C260.903 38.1347 261.141 37.1313 261.129 35.9364ZM282.092 47.821C280.387 47.821 278.867 47.5252 277.533 46.9336C276.199 46.3304 275.144 45.4429 274.366 44.2713C273.601 43.0881 273.218 41.6148 273.218 39.8516C273.218 38.3667 273.491 37.1197 274.036 36.1104C274.581 35.1012 275.323 34.2892 276.263 33.6744C277.203 33.0595 278.27 32.5955 279.465 32.2823C280.671 31.9691 281.936 31.7487 283.258 31.6211C284.813 31.4587 286.065 31.3079 287.017 31.1687C287.968 31.0179 288.658 30.7975 289.087 30.5075C289.516 30.2174 289.731 29.7882 289.731 29.2198V29.1154C289.731 28.0134 289.383 27.1607 288.687 26.5575C288.003 25.9543 287.028 25.6527 285.764 25.6527C284.43 25.6527 283.368 25.9485 282.579 26.5401C281.791 27.1201 281.269 27.851 281.013 28.7326L274.158 28.1758C274.506 26.5517 275.19 25.1481 276.211 23.9648C277.232 22.77 278.548 21.8536 280.161 21.2156C281.785 20.5659 283.664 20.2411 285.799 20.2411C287.283 20.2411 288.704 20.4151 290.062 20.7631C291.431 21.1112 292.643 21.6506 293.698 22.3814C294.766 23.1122 295.607 24.0518 296.222 25.2003C296.836 26.3371 297.144 27.7002 297.144 29.2894V47.3164H290.114V43.6101H289.905C289.476 44.4453 288.902 45.1819 288.182 45.82C287.463 46.4464 286.599 46.9394 285.59 47.299C284.581 47.647 283.415 47.821 282.092 47.821ZM284.215 42.7053C285.306 42.7053 286.268 42.4906 287.104 42.0614C287.939 41.6206 288.594 41.029 289.07 40.2866C289.545 39.5442 289.783 38.7031 289.783 37.7635V34.9272C289.551 35.078 289.232 35.2172 288.826 35.3448C288.432 35.4608 287.985 35.571 287.486 35.6754C286.988 35.7682 286.489 35.8552 285.99 35.9364C285.491 36.006 285.039 36.0698 284.633 36.1278C283.763 36.2554 283.003 36.4585 282.353 36.7369C281.704 37.0153 281.199 37.3923 280.839 37.8679C280.48 38.3319 280.3 38.9119 280.3 39.608C280.3 40.6172 280.665 41.3886 281.396 41.9222C282.139 42.4442 283.078 42.7053 284.215 42.7053ZM326.311 47.8384C323.574 47.8384 321.219 47.2584 319.247 46.0984C317.286 44.9267 315.778 43.3027 314.723 41.2262C313.679 39.1497 313.157 36.7601 313.157 34.0572C313.157 31.3195 313.684 28.9182 314.74 26.8533C315.807 24.7769 317.321 23.1586 319.282 21.9986C321.242 20.8269 323.574 20.2411 326.277 20.2411C328.608 20.2411 330.65 20.6645 332.402 21.5114C334.153 22.3582 335.54 23.5472 336.56 25.0785C337.581 26.6097 338.144 28.4078 338.248 30.4727H331.253C331.056 29.1386 330.534 28.0656 329.687 27.2536C328.852 26.4299 327.756 26.0181 326.398 26.0181C325.25 26.0181 324.247 26.3313 323.388 26.9577C322.541 27.5726 321.88 28.4716 321.404 29.6548C320.929 30.8381 320.691 32.2707 320.691 33.9528C320.691 35.658 320.923 37.1081 321.387 38.3029C321.863 39.4978 322.53 40.4084 323.388 41.0348C324.247 41.6612 325.25 41.9744 326.398 41.9744C327.245 41.9744 328.005 41.8004 328.678 41.4524C329.362 41.1044 329.925 40.5998 330.366 39.9386C330.818 39.2657 331.114 38.4595 331.253 37.5199H338.248C338.132 39.5616 337.575 41.3596 336.578 42.9141C335.592 44.4569 334.229 45.6634 332.489 46.5334C330.749 47.4034 328.69 47.8384 326.311 47.8384ZM350.616 47.821C348.91 47.821 347.391 47.5252 346.057 46.9336C344.723 46.3304 343.667 45.4429 342.89 44.2713C342.124 43.0881 341.741 41.6148 341.741 39.8516C341.741 38.3667 342.014 37.1197 342.559 36.1104C343.104 35.1012 343.847 34.2892 344.786 33.6744C345.726 33.0595 346.793 32.5955 347.988 32.2823C349.195 31.9691 350.459 31.7487 351.782 31.6211C353.336 31.4587 354.589 31.3079 355.54 31.1687C356.491 31.0179 357.181 30.7975 357.611 30.5075C358.04 30.2174 358.255 29.7882 358.255 29.2198V29.1154C358.255 28.0134 357.907 27.1607 357.21 26.5575C356.526 25.9543 355.552 25.6527 354.287 25.6527C352.953 25.6527 351.892 25.9485 351.103 26.5401C350.314 27.1201 349.792 27.851 349.537 28.7326L342.681 28.1758C343.029 26.5517 343.713 25.1481 344.734 23.9648C345.755 22.77 347.072 21.8536 348.684 21.2156C350.308 20.5659 352.188 20.2411 354.322 20.2411C355.807 20.2411 357.228 20.4151 358.585 20.7631C359.954 21.1112 361.166 21.6506 362.222 22.3814C363.289 23.1122 364.13 24.0518 364.745 25.2003C365.36 26.3371 365.667 27.7002 365.667 29.2894V47.3164H358.637V43.6101H358.429C357.999 44.4453 357.425 45.1819 356.706 45.82C355.987 46.4464 355.122 46.9394 354.113 47.299C353.104 47.647 351.938 47.821 350.616 47.821ZM352.739 42.7053C353.829 42.7053 354.792 42.4906 355.627 42.0614C356.462 41.6206 357.118 41.029 357.593 40.2866C358.069 39.5442 358.307 38.7031 358.307 37.7635V34.9272C358.075 35.078 357.756 35.2172 357.35 35.3448C356.955 35.4608 356.509 35.571 356.01 35.6754C355.511 35.7682 355.012 35.8552 354.513 35.9364C354.015 36.006 353.562 36.0698 353.156 36.1278C352.286 36.2554 351.526 36.4585 350.877 36.7369C350.227 37.0153 349.722 37.3923 349.363 37.8679C349.003 38.3319 348.823 38.9119 348.823 39.608C348.823 40.6172 349.189 41.3886 349.92 41.9222C350.662 42.4442 351.602 42.7053 352.739 42.7053ZM371.418 47.3164V20.5891H378.604V25.2525H378.883C379.37 23.5936 380.188 22.3408 381.336 21.494C382.485 20.6355 383.807 20.2063 385.304 20.2063C385.675 20.2063 386.075 20.2295 386.504 20.2759C386.934 20.3223 387.311 20.3861 387.635 20.4673V27.0447C387.287 26.9403 386.806 26.8475 386.191 26.7663C385.576 26.6851 385.014 26.6445 384.503 26.6445C383.413 26.6445 382.438 26.8823 381.58 27.358C380.733 27.822 380.06 28.4716 379.562 29.3068C379.074 30.142 378.831 31.1049 378.831 32.1953V47.3164H371.418ZM391.468 47.3164V20.5891H398.654V25.2525H398.933C399.42 23.5936 400.238 22.3408 401.386 21.494C402.535 20.6355 403.857 20.2063 405.354 20.2063C405.725 20.2063 406.125 20.2295 406.554 20.2759C406.983 20.3223 407.36 20.3861 407.685 20.4673V27.0447C407.337 26.9403 406.856 26.8475 406.241 26.7663C405.626 26.6851 405.064 26.6445 404.553 26.6445C403.463 26.6445 402.488 26.8823 401.63 27.358C400.783 27.822 400.11 28.4716 399.611 29.3068C399.124 30.142 398.881 31.1049 398.881 32.1953V47.3164H391.468ZM422.454 47.8384C419.705 47.8384 417.338 47.2816 415.354 46.168C413.382 45.0427 411.863 43.4535 410.796 41.4002C409.728 39.3353 409.195 36.8935 409.195 34.0746C409.195 31.3253 409.728 28.9124 410.796 26.8359C411.863 24.7595 413.365 23.1412 415.302 21.9812C417.251 20.8211 419.536 20.2411 422.158 20.2411C423.921 20.2411 425.563 20.5253 427.082 21.0938C428.614 21.6506 429.948 22.4916 431.085 23.6168C432.233 24.7421 433.126 26.1573 433.764 27.8626C434.402 29.5562 434.721 31.5399 434.721 33.8136V35.8494H412.153V31.2557H427.744C427.744 30.1884 427.512 29.243 427.048 28.4194C426.584 27.5958 425.94 26.9519 425.116 26.4879C424.304 26.0123 423.359 25.7745 422.28 25.7745C421.155 25.7745 420.157 26.0355 419.287 26.5575C418.429 27.0679 417.756 27.7582 417.269 28.6282C416.781 29.4866 416.532 30.4437 416.52 31.4993V35.8668C416.52 37.1893 416.764 38.3319 417.251 39.2947C417.75 40.2576 418.452 41 419.357 41.522C420.261 42.044 421.334 42.305 422.576 42.305C423.399 42.305 424.153 42.189 424.838 41.957C425.522 41.725 426.108 41.377 426.595 40.913C427.082 40.449 427.454 39.8806 427.709 39.2077L434.565 39.6602C434.217 41.3074 433.503 42.7459 432.424 43.9755C431.357 45.1935 429.977 46.1448 428.283 46.8292C426.601 47.502 424.658 47.8384 422.454 47.8384ZM439.559 47.3164V20.5891H446.971V47.3164H439.559ZM443.282 17.1438C442.18 17.1438 441.235 16.7784 440.446 16.0476C439.669 15.3052 439.28 14.4177 439.28 13.3853C439.28 12.3645 439.669 11.4886 440.446 10.7578C441.235 10.0154 442.18 9.64417 443.282 9.64417C444.384 9.64417 445.324 10.0154 446.101 10.7578C446.89 11.4886 447.285 12.3645 447.285 13.3853C447.285 14.4177 446.89 15.3052 446.101 16.0476C445.324 16.7784 444.384 17.1438 443.282 17.1438ZM452.909 47.3164V20.5891H460.096V25.2525H460.374C460.861 23.5936 461.679 22.3408 462.828 21.494C463.976 20.6355 465.298 20.2063 466.795 20.2063C467.166 20.2063 467.566 20.2295 467.996 20.2759C468.425 20.3223 468.802 20.3861 469.127 20.4673V27.0447C468.779 26.9403 468.297 26.8475 467.682 26.7663C467.068 26.6851 466.505 26.6445 465.994 26.6445C464.904 26.6445 463.93 26.8823 463.071 27.358C462.224 27.822 461.552 28.4716 461.053 29.3068C460.566 30.142 460.322 31.1049 460.322 32.1953V47.3164H452.909ZM479.815 47.821C478.11 47.821 476.59 47.5252 475.256 46.9336C473.922 46.3304 472.866 45.4429 472.089 44.2713C471.323 43.0881 470.941 41.6148 470.941 39.8516C470.941 38.3667 471.213 37.1197 471.758 36.1104C472.304 35.1012 473.046 34.2892 473.986 33.6744C474.925 33.0595 475.993 32.5955 477.187 32.2823C478.394 31.9691 479.658 31.7487 480.981 31.6211C482.535 31.4587 483.788 31.3079 484.739 31.1687C485.69 31.0179 486.381 30.7975 486.81 30.5075C487.239 30.2174 487.454 29.7882 487.454 29.2198V29.1154C487.454 28.0134 487.106 27.1607 486.41 26.5575C485.725 25.9543 484.751 25.6527 483.486 25.6527C482.152 25.6527 481.091 25.9485 480.302 26.5401C479.513 27.1201 478.991 27.851 478.736 28.7326L471.88 28.1758C472.228 26.5517 472.913 25.1481 473.934 23.9648C474.954 22.77 476.271 21.8536 477.883 21.2156C479.507 20.5659 481.387 20.2411 483.521 20.2411C485.006 20.2411 486.427 20.4151 487.784 20.7631C489.153 21.1112 490.365 21.6506 491.421 22.3814C492.488 23.1122 493.329 24.0518 493.944 25.2003C494.559 26.3371 494.866 27.7002 494.866 29.2894V47.3164H487.837V43.6101H487.628C487.199 44.4453 486.624 45.1819 485.905 45.82C485.186 46.4464 484.322 46.9394 483.312 47.299C482.303 47.647 481.137 47.821 479.815 47.821ZM481.938 42.7053C483.028 42.7053 483.991 42.4906 484.826 42.0614C485.661 41.6206 486.317 41.029 486.793 40.2866C487.268 39.5442 487.506 38.7031 487.506 37.7635V34.9272C487.274 35.078 486.955 35.2172 486.549 35.3448C486.155 35.4608 485.708 35.571 485.209 35.6754C484.71 35.7682 484.211 35.8552 483.713 35.9364C483.214 36.006 482.761 36.0698 482.355 36.1278C481.485 36.2554 480.726 36.4585 480.076 36.7369C479.426 37.0153 478.922 37.3923 478.562 37.8679C478.202 38.3319 478.023 38.9119 478.023 39.608C478.023 40.6172 478.388 41.3886 479.119 41.9222C479.861 42.4442 480.801 42.7053 481.938 42.7053ZM524.034 47.8384C521.296 47.8384 518.942 47.2584 516.969 46.0984C515.009 44.9267 513.501 43.3027 512.445 41.2262C511.401 39.1497 510.879 36.7601 510.879 34.0572C510.879 31.3195 511.407 28.9182 512.463 26.8533C513.53 24.7769 515.044 23.1586 517.004 21.9986C518.965 20.8269 521.296 20.2411 523.999 20.2411C526.331 20.2411 528.373 20.6645 530.124 21.5114C531.876 22.3582 533.262 23.5472 534.283 25.0785C535.304 26.6097 535.866 28.4078 535.971 30.4727H528.976C528.779 29.1386 528.257 28.0656 527.41 27.2536C526.575 26.4299 525.478 26.0181 524.121 26.0181C522.973 26.0181 521.969 26.3313 521.111 26.9577C520.264 27.5726 519.603 28.4716 519.127 29.6548C518.652 30.8381 518.414 32.2707 518.414 33.9528C518.414 35.658 518.646 37.1081 519.11 38.3029C519.585 39.4978 520.252 40.4084 521.111 41.0348C521.969 41.6612 522.973 41.9744 524.121 41.9744C524.968 41.9744 525.728 41.8004 526.401 41.4524C527.085 41.1044 527.648 40.5998 528.088 39.9386C528.541 39.2657 528.837 38.4595 528.976 37.5199H535.971C535.855 39.5616 535.298 41.3596 534.3 42.9141C533.314 44.4569 531.951 45.6634 530.211 46.5334C528.471 47.4034 526.412 47.8384 524.034 47.8384ZM552.793 47.8384C550.09 47.8384 547.753 47.2642 545.78 46.1158C543.82 44.9557 542.306 43.3433 541.239 41.2784C540.172 39.2019 539.638 36.7949 539.638 34.0572C539.638 31.2963 540.172 28.8834 541.239 26.8185C542.306 24.7421 543.82 23.1296 545.78 21.9812C547.753 20.8211 550.09 20.2411 552.793 20.2411C555.496 20.2411 557.827 20.8211 559.788 21.9812C561.76 23.1296 563.28 24.7421 564.347 26.8185C565.414 28.8834 565.948 31.2963 565.948 34.0572C565.948 36.7949 565.414 39.2019 564.347 41.2784C563.28 43.3433 561.76 44.9557 559.788 46.1158C557.827 47.2642 555.496 47.8384 552.793 47.8384ZM552.828 42.0962C554.057 42.0962 555.084 41.7482 555.908 41.0522C556.731 40.3446 557.352 39.3817 557.769 38.1637C558.199 36.9457 558.413 35.5594 558.413 34.005C558.413 32.4505 558.199 31.0643 557.769 29.8462C557.352 28.6282 556.731 27.6654 555.908 26.9577C555.084 26.2501 554.057 25.8963 552.828 25.8963C551.586 25.8963 550.542 26.2501 549.696 26.9577C548.86 27.6654 548.228 28.6282 547.799 29.8462C547.381 31.0643 547.172 32.4505 547.172 34.005C547.172 35.5594 547.381 36.9457 547.799 38.1637C548.228 39.3817 548.86 40.3446 549.696 41.0522C550.542 41.7482 551.586 42.0962 552.828 42.0962ZM570.768 47.3164V20.5891H577.832V25.3047H578.146C578.702 23.7386 579.63 22.5032 580.93 21.5984C582.229 20.6935 583.783 20.2411 585.593 20.2411C587.426 20.2411 588.986 20.6993 590.274 21.6158C591.561 22.5206 592.42 23.7502 592.849 25.3047H593.127C593.673 23.7734 594.659 22.5496 596.085 21.6332C597.524 20.7051 599.223 20.2411 601.184 20.2411C603.678 20.2411 605.702 21.0357 607.257 22.625C608.823 24.2027 609.606 26.4415 609.606 29.3416V47.3164H602.21V30.8033C602.21 29.3184 601.816 28.2048 601.027 27.4624C600.238 26.7199 599.252 26.3487 598.069 26.3487C596.724 26.3487 595.674 26.7779 594.92 27.6364C594.166 28.4832 593.789 29.6026 593.789 30.9947V47.3164H586.602V30.6467C586.602 29.3358 586.225 28.2918 585.471 27.5146C584.729 26.7373 583.748 26.3487 582.53 26.3487C581.707 26.3487 580.964 26.5575 580.303 26.9751C579.654 27.3812 579.137 27.9554 578.755 28.6978C578.372 29.4286 578.18 30.287 578.18 31.2731V47.3164H570.768Z" fill="white"/>
<path d="M86.4316 106.838C83.6939 106.838 81.339 106.258 79.3669 105.098C77.4065 103.927 75.8984 102.303 74.8428 100.226C73.7987 98.1497 73.2767 95.7601 73.2767 93.0572C73.2767 90.3195 73.8045 87.9182 74.8602 85.8533C75.9274 83.7769 77.4413 82.1586 79.4017 80.9986C81.3622 79.8269 83.6939 79.2411 86.3968 79.2411C88.7284 79.2411 90.7701 79.6645 92.5218 80.5114C94.2734 81.3582 95.6597 82.5472 96.6805 84.0785C97.7013 85.6097 98.2639 87.4078 98.3683 89.4727H91.3733C91.1761 88.1386 90.6541 87.0656 89.8073 86.2536C88.972 85.4299 87.8758 85.0181 86.5186 85.0181C85.3701 85.0181 84.3667 85.3313 83.5083 85.9577C82.6614 86.5726 82.0002 87.4716 81.5246 88.6548C81.049 89.8381 80.8112 91.2707 80.8112 92.9528C80.8112 94.658 81.0432 96.1081 81.5072 97.3029C81.9828 98.4978 82.6498 99.4084 83.5083 100.035C84.3667 100.661 85.3701 100.974 86.5186 100.974C87.3654 100.974 88.1252 100.8 88.798 100.452C89.4825 100.104 90.0451 99.5998 90.4859 98.9386C90.9383 98.2657 91.2341 97.4595 91.3733 96.5199H98.3683C98.2523 98.5616 97.6955 100.36 96.6979 101.914C95.7119 103.457 94.3488 104.663 92.6088 105.533C90.8687 106.403 88.8096 106.838 86.4316 106.838ZM115.19 106.838C112.487 106.838 110.15 106.264 108.178 105.116C106.217 103.956 104.704 102.343 103.636 100.278C102.569 98.2019 102.036 95.7949 102.036 93.0572C102.036 90.2963 102.569 87.8834 103.636 85.8185C104.704 83.7421 106.217 82.1296 108.178 80.9812C110.15 79.8211 112.487 79.2411 115.19 79.2411C117.893 79.2411 120.225 79.8211 122.185 80.9812C124.157 82.1296 125.677 83.7421 126.744 85.8185C127.812 87.8834 128.345 90.2963 128.345 93.0572C128.345 95.7949 127.812 98.2019 126.744 100.278C125.677 102.343 124.157 103.956 122.185 105.116C120.225 106.264 117.893 106.838 115.19 106.838ZM115.225 101.096C116.455 101.096 117.481 100.748 118.305 100.052C119.129 99.3446 119.749 98.3817 120.167 97.1637C120.596 95.9457 120.811 94.5594 120.811 93.005C120.811 91.4505 120.596 90.0643 120.167 88.8462C119.749 87.6282 119.129 86.6654 118.305 85.9577C117.481 85.2501 116.455 84.8963 115.225 84.8963C113.984 84.8963 112.94 85.2501 112.093 85.9577C111.258 86.6654 110.626 87.6282 110.196 88.8462C109.779 90.0643 109.57 91.4505 109.57 93.005C109.57 94.5594 109.779 95.9457 110.196 97.1637C110.626 98.3817 111.258 99.3446 112.093 100.052C112.94 100.748 113.984 101.096 115.225 101.096ZM140.578 90.8647V106.316H133.165V79.5891H140.23V84.3047H140.543C141.135 82.7502 142.126 81.5206 143.518 80.6158C144.911 79.6993 146.598 79.2411 148.582 79.2411C150.438 79.2411 152.056 79.6471 153.437 80.4592C154.817 81.2712 155.89 82.4312 156.656 83.9393C157.422 85.4357 157.804 87.2222 157.804 89.2986V106.316H150.392V90.6211C150.403 88.9854 149.986 87.7094 149.139 86.793C148.292 85.8649 147.126 85.4009 145.641 85.4009C144.644 85.4009 143.762 85.6155 142.996 86.0447C142.242 86.474 141.651 87.1004 141.222 87.924C140.804 88.736 140.589 89.7163 140.578 90.8647ZM178.019 79.5891V85.1573H161.524V79.5891H178.019ZM165.3 106.316V77.6577C165.3 75.7204 165.677 74.1138 166.431 72.8377C167.196 71.5617 168.24 70.6046 169.563 69.9666C170.885 69.3286 172.387 69.0096 174.07 69.0096C175.206 69.0096 176.245 69.0966 177.184 69.2706C178.135 69.4446 178.843 69.6012 179.307 69.7404L177.985 75.3086C177.695 75.2158 177.335 75.1288 176.906 75.0476C176.488 74.9664 176.059 74.9258 175.618 74.9258C174.528 74.9258 173.768 75.181 173.339 75.6914C172.909 76.1902 172.695 76.892 172.695 77.7969V106.316H165.3ZM182.548 106.316V79.5891H189.961V106.316H182.548ZM186.272 76.1438C185.17 76.1438 184.224 75.7784 183.435 75.0476C182.658 74.3052 182.27 73.4177 182.27 72.3853C182.27 71.3645 182.658 70.4886 183.435 69.7578C184.224 69.0154 185.17 68.6442 186.272 68.6442C187.374 68.6442 188.313 69.0154 189.091 69.7578C189.879 70.4886 190.274 71.3645 190.274 72.3853C190.274 73.4177 189.879 74.3052 189.091 75.0476C188.313 75.7784 187.374 76.1438 186.272 76.1438ZM203.52 106.821C201.815 106.821 200.295 106.525 198.961 105.934C197.627 105.33 196.571 104.443 195.794 103.271C195.028 102.088 194.646 100.615 194.646 98.8516C194.646 97.3667 194.918 96.1197 195.464 95.1104C196.009 94.1012 196.751 93.2892 197.691 92.6744C198.63 92.0595 199.698 91.5955 200.892 91.2823C202.099 90.9691 203.363 90.7487 204.686 90.6211C206.24 90.4587 207.493 90.3079 208.444 90.1687C209.396 90.0179 210.086 89.7975 210.515 89.5075C210.944 89.2174 211.159 88.7882 211.159 88.2198V88.1154C211.159 87.0134 210.811 86.1607 210.115 85.5575C209.43 84.9543 208.456 84.6527 207.191 84.6527C205.857 84.6527 204.796 84.9485 204.007 85.5401C203.218 86.1201 202.696 86.851 202.441 87.7326L195.585 87.1758C195.933 85.5517 196.618 84.1481 197.639 82.9648C198.659 81.77 199.976 80.8536 201.589 80.2156C203.213 79.5659 205.092 79.2411 207.226 79.2411C208.711 79.2411 210.132 79.4151 211.489 79.7631C212.858 80.1112 214.071 80.6506 215.126 81.3814C216.193 82.1122 217.034 83.0518 217.649 84.2003C218.264 85.3371 218.571 86.7002 218.571 88.2894V106.316H211.542V102.61H211.333C210.904 103.445 210.329 104.182 209.61 104.82C208.891 105.446 208.027 105.939 207.017 106.299C206.008 106.647 204.842 106.821 203.52 106.821ZM205.643 101.705C206.733 101.705 207.696 101.491 208.531 101.061C209.367 100.621 210.022 100.029 210.498 99.2866C210.973 98.5442 211.211 97.7031 211.211 96.7635V93.9272C210.979 94.078 210.66 94.2172 210.254 94.3448C209.86 94.4608 209.413 94.571 208.914 94.6754C208.415 94.7682 207.917 94.8552 207.418 94.9364C206.919 95.006 206.466 95.0698 206.06 95.1278C205.19 95.2554 204.431 95.4585 203.781 95.7369C203.131 96.0153 202.627 96.3923 202.267 96.8679C201.908 97.3319 201.728 97.9119 201.728 98.608C201.728 99.6172 202.093 100.389 202.824 100.922C203.566 101.444 204.506 101.705 205.643 101.705ZM231.735 90.8647V106.316H224.322V79.5891H231.387V84.3047H231.7C232.292 82.7502 233.284 81.5206 234.676 80.6158C236.068 79.6993 237.756 79.2411 239.739 79.2411C241.595 79.2411 243.214 79.6471 244.594 80.4592C245.974 81.2712 247.047 82.4312 247.813 83.9393C248.579 85.4357 248.962 87.2222 248.962 89.2986V106.316H241.549V90.6211C241.561 88.9854 241.143 87.7094 240.296 86.793C239.449 85.8649 238.283 85.4009 236.799 85.4009C235.801 85.4009 234.919 85.6155 234.154 86.0447C233.4 86.474 232.808 87.1004 232.379 87.924C231.961 88.736 231.747 89.7163 231.735 90.8647ZM266.88 106.838C264.142 106.838 261.787 106.258 259.815 105.098C257.855 103.927 256.347 102.303 255.291 100.226C254.247 98.1497 253.725 95.7601 253.725 93.0572C253.725 90.3195 254.253 87.9182 255.308 85.8533C256.376 83.7769 257.89 82.1586 259.85 80.9986C261.81 79.8269 264.142 79.2411 266.845 79.2411C269.177 79.2411 271.218 79.6645 272.97 80.5114C274.722 81.3582 276.108 82.5472 277.129 84.0785C278.15 85.6097 278.712 87.4078 278.817 89.4727H271.822C271.624 88.1386 271.102 87.0656 270.256 86.2536C269.42 85.4299 268.324 85.0181 266.967 85.0181C265.818 85.0181 264.815 85.3313 263.956 85.9577C263.11 86.5726 262.448 87.4716 261.973 88.6548C261.497 89.8381 261.259 91.2707 261.259 92.9528C261.259 94.658 261.491 96.1081 261.955 97.3029C262.431 98.4978 263.098 99.4084 263.956 100.035C264.815 100.661 265.818 100.974 266.967 100.974C267.814 100.974 268.573 100.8 269.246 100.452C269.931 100.104 270.493 99.5998 270.934 98.9386C271.387 98.2657 271.682 97.4595 271.822 96.5199H278.817C278.701 98.5616 278.144 100.36 277.146 101.914C276.16 103.457 274.797 104.663 273.057 105.533C271.317 106.403 269.258 106.838 266.88 106.838ZM265.14 106.177H268.55L268.272 107.691C269.467 107.877 270.441 108.323 271.195 109.031C271.961 109.739 272.349 110.701 272.361 111.919C272.373 113.648 271.572 115.022 269.96 116.043C268.347 117.076 266.085 117.592 263.173 117.592L263.104 114.286C264.566 114.286 265.708 114.106 266.532 113.746C267.367 113.398 267.802 112.853 267.837 112.111C267.86 111.403 267.587 110.864 267.019 110.493C266.451 110.121 265.563 109.86 264.357 109.71L265.14 106.177ZM291.184 106.821C289.479 106.821 287.959 106.525 286.625 105.934C285.291 105.33 284.235 104.443 283.458 103.271C282.693 102.088 282.31 100.615 282.31 98.8516C282.31 97.3667 282.582 96.1197 283.128 95.1104C283.673 94.1012 284.415 93.2892 285.355 92.6744C286.294 92.0595 287.362 91.5955 288.557 91.2823C289.763 90.9691 291.027 90.7487 292.35 90.6211C293.904 90.4587 295.157 90.3079 296.108 90.1687C297.06 90.0179 297.75 89.7975 298.179 89.5075C298.608 89.2174 298.823 88.7882 298.823 88.2198V88.1154C298.823 87.0134 298.475 86.1607 297.779 85.5575C297.094 84.9543 296.12 84.6527 294.856 84.6527C293.522 84.6527 292.46 84.9485 291.671 85.5401C290.882 86.1201 290.36 86.851 290.105 87.7326L283.249 87.1758C283.597 85.5517 284.282 84.1481 285.303 82.9648C286.323 81.77 287.64 80.8536 289.253 80.2156C290.877 79.5659 292.756 79.2411 294.89 79.2411C296.375 79.2411 297.796 79.4151 299.153 79.7631C300.522 80.1112 301.735 80.6506 302.79 81.3814C303.857 82.1122 304.698 83.0518 305.313 84.2003C305.928 85.3371 306.236 86.7002 306.236 88.2894V106.316H299.206V102.61H298.997C298.568 103.445 297.993 104.182 297.274 104.82C296.555 105.446 295.691 105.939 294.682 106.299C293.672 106.647 292.506 106.821 291.184 106.821ZM293.307 101.705C294.397 101.705 295.36 101.491 296.195 101.061C297.031 100.621 297.686 100.029 298.162 99.2866C298.637 98.5442 298.875 97.7031 298.875 96.7635V93.9272C298.643 94.078 298.324 94.2172 297.918 94.3448C297.524 94.4608 297.077 94.571 296.578 94.6754C296.079 94.7682 295.581 94.8552 295.082 94.9364C294.583 95.006 294.131 95.0698 293.725 95.1278C292.854 95.2554 292.095 95.4585 291.445 95.7369C290.795 96.0153 290.291 96.3923 289.931 96.8679C289.572 97.3319 289.392 97.9119 289.392 98.608C289.392 99.6172 289.757 100.389 290.488 100.922C291.23 101.444 292.17 101.705 293.307 101.705ZM330.74 90.8647V106.316H323.327V79.5891H330.392V84.3047H330.705C331.297 82.7502 332.289 81.5206 333.681 80.6158C335.073 79.6993 336.76 79.2411 338.744 79.2411C340.6 79.2411 342.218 79.6471 343.599 80.4592C344.979 81.2712 346.052 82.4312 346.818 83.9393C347.584 85.4357 347.966 87.2222 347.966 89.2986V106.316H340.554V90.6211C340.565 88.9854 340.148 87.7094 339.301 86.793C338.454 85.8649 337.288 85.4009 335.803 85.4009C334.806 85.4009 333.924 85.6155 333.159 86.0447C332.405 86.474 331.813 87.1004 331.384 87.924C330.966 88.736 330.751 89.7163 330.74 90.8647ZM365.885 106.838C363.182 106.838 360.844 106.264 358.872 105.116C356.912 103.956 355.398 102.343 354.331 100.278C353.263 98.2019 352.73 95.7949 352.73 93.0572C352.73 90.2963 353.263 87.8834 354.331 85.8185C355.398 83.7421 356.912 82.1296 358.872 80.9812C360.844 79.8211 363.182 79.2411 365.885 79.2411C368.588 79.2411 370.919 79.8211 372.88 80.9812C374.852 82.1296 376.371 83.7421 377.439 85.8185C378.506 87.8834 379.04 90.2963 379.04 93.0572C379.04 95.7949 378.506 98.2019 377.439 100.278C376.371 102.343 374.852 103.956 372.88 105.116C370.919 106.264 368.588 106.838 365.885 106.838ZM365.919 101.096C367.149 101.096 368.176 100.748 368.999 100.052C369.823 99.3446 370.444 98.3817 370.861 97.1637C371.29 95.9457 371.505 94.5594 371.505 93.005C371.505 91.4505 371.29 90.0643 370.861 88.8462C370.444 87.6282 369.823 86.6654 368.999 85.9577C368.176 85.2501 367.149 84.8963 365.919 84.8963C364.678 84.8963 363.634 85.2501 362.787 85.9577C361.952 86.6654 361.32 87.6282 360.891 88.8462C360.473 90.0643 360.264 91.4505 360.264 93.005C360.264 94.5594 360.473 95.9457 360.891 97.1637C361.32 98.3817 361.952 99.3446 362.787 100.052C363.634 100.748 364.678 101.096 365.919 101.096ZM409.573 79.5891V85.1573H393.077V79.5891H409.573ZM396.853 106.316V77.6577C396.853 75.7204 397.23 74.1138 397.984 72.8377C398.75 71.5617 399.794 70.6046 401.116 69.9666C402.439 69.3286 403.941 69.0096 405.623 69.0096C406.76 69.0096 407.798 69.0966 408.738 69.2706C409.689 69.4446 410.397 69.6012 410.861 69.7404L409.538 75.3086C409.248 75.2158 408.889 75.1288 408.46 75.0476C408.042 74.9664 407.613 74.9258 407.172 74.9258C406.081 74.9258 405.322 75.181 404.892 75.6914C404.463 76.1902 404.249 76.892 404.249 77.7969V106.316H396.853ZM431.241 94.9364V79.5891H438.654V106.316H431.537V101.462H431.259C430.655 103.028 429.652 104.286 428.248 105.238C426.856 106.189 425.157 106.664 423.15 106.664C421.363 106.664 419.792 106.258 418.434 105.446C417.077 104.634 416.016 103.48 415.25 101.984C414.496 100.487 414.113 98.695 414.102 96.6069V79.5891H421.514V95.2844C421.526 96.8621 421.949 98.1091 422.785 99.0256C423.62 99.942 424.739 100.4 426.143 100.4C427.036 100.4 427.871 100.197 428.649 99.7912C429.426 99.3736 430.052 98.7588 430.528 97.9467C431.015 97.1347 431.253 96.1313 431.241 94.9364ZM458.799 79.5891V85.1573H442.704V79.5891H458.799ZM446.358 73.1857H453.771V98.1033C453.771 98.7878 453.875 99.3214 454.084 99.7042C454.293 100.075 454.583 100.336 454.954 100.487C455.337 100.638 455.777 100.713 456.276 100.713C456.624 100.713 456.972 100.684 457.32 100.626C457.668 100.557 457.935 100.505 458.121 100.47L459.287 105.986C458.915 106.102 458.393 106.235 457.721 106.386C457.048 106.548 456.23 106.647 455.267 106.682C453.481 106.751 451.915 106.514 450.569 105.968C449.235 105.423 448.197 104.576 447.454 103.428C446.712 102.279 446.346 100.829 446.358 99.0778V73.1857ZM480.768 94.9364V79.5891H488.18V106.316H481.063V101.462H480.785C480.182 103.028 479.178 104.286 477.775 105.238C476.383 106.189 474.683 106.664 472.676 106.664C470.89 106.664 469.318 106.258 467.961 105.446C466.604 104.634 465.542 103.48 464.776 101.984C464.022 100.487 463.64 98.695 463.628 96.6069V79.5891H471.041V95.2844C471.052 96.8621 471.476 98.1091 472.311 99.0256C473.146 99.942 474.266 100.4 475.669 100.4C476.562 100.4 477.398 100.197 478.175 99.7912C478.952 99.3736 479.579 98.7588 480.054 97.9467C480.541 97.1347 480.779 96.1313 480.768 94.9364ZM494.109 106.316V79.5891H501.296V84.2525H501.574C502.062 82.5936 502.879 81.3408 504.028 80.494C505.176 79.6355 506.499 79.2063 507.995 79.2063C508.366 79.2063 508.767 79.2295 509.196 79.2759C509.625 79.3223 510.002 79.3861 510.327 79.4673V86.0447C509.979 85.9403 509.497 85.8475 508.883 85.7663C508.268 85.6851 507.705 85.6445 507.195 85.6445C506.104 85.6445 505.13 85.8823 504.271 86.358C503.425 86.822 502.752 87.4716 502.253 88.3068C501.766 89.142 501.522 90.1049 501.522 91.1953V106.316H494.109ZM524.991 106.838C522.288 106.838 519.951 106.264 517.979 105.116C516.018 103.956 514.504 102.343 513.437 100.278C512.37 98.2019 511.836 95.7949 511.836 93.0572C511.836 90.2963 512.37 87.8834 513.437 85.8185C514.504 83.7421 516.018 82.1296 517.979 80.9812C519.951 79.8211 522.288 79.2411 524.991 79.2411C527.694 79.2411 530.026 79.8211 531.986 80.9812C533.958 82.1296 535.478 83.7421 536.545 85.8185C537.612 87.8834 538.146 90.2963 538.146 93.0572C538.146 95.7949 537.612 98.2019 536.545 100.278C535.478 102.343 533.958 103.956 531.986 105.116C530.026 106.264 527.694 106.838 524.991 106.838ZM525.026 101.096C526.256 101.096 527.282 100.748 528.106 100.052C528.929 99.3446 529.55 98.3817 529.968 97.1637C530.397 95.9457 530.612 94.5594 530.612 93.005C530.612 91.4505 530.397 90.0643 529.968 88.8462C529.55 87.6282 528.929 86.6654 528.106 85.9577C527.282 85.2501 526.256 84.8963 525.026 84.8963C523.785 84.8963 522.741 85.2501 521.894 85.9577C521.059 86.6654 520.426 87.6282 519.997 88.8462C519.58 90.0643 519.371 91.4505 519.371 93.005C519.371 94.5594 519.58 95.9457 519.997 97.1637C520.426 98.3817 521.059 99.3446 521.894 100.052C522.741 100.748 523.785 101.096 525.026 101.096ZM547.299 106.769C546.15 106.769 545.164 106.363 544.341 105.551C543.529 104.727 543.123 103.741 543.123 102.593C543.123 101.456 543.529 100.481 544.341 99.6694C545.164 98.8574 546.15 98.4513 547.299 98.4513C548.412 98.4513 549.387 98.8574 550.222 99.6694C551.057 100.481 551.475 101.456 551.475 102.593C551.475 103.358 551.278 104.06 550.883 104.698C550.5 105.325 549.996 105.829 549.369 106.212C548.743 106.583 548.053 106.769 547.299 106.769Z" fill="#0385D1"/>
</svg>
